<?xml version="1.0" encoding="UTF-8"?>
<svg xmlns="http://www.w3.org/2000/svg" viewBox="0 0 780 612" fill="currentColor" role="img" aria-label="Ñol"><style>svg{color:#2b2b2b}@media (prefers-color-scheme: dark){svg{color:#ece8e1}}</style>
  <title>Ñol</title>
  <g transform="translate(0.000000,612.000000) scale(0.100000,-0.100000)">
  <path d="M4315 6031 c-112 -14 -320 -99 -430 -174 -246 -169 -552 -445 -796
-718 -101 -113 -332 -403 -436 -546 -157 -216 -359 -504 -477 -679 l-76 -111
-185 -2 c-140 -1 -196 -5 -228 -17 -23 -8 -57 -19 -76 -24 -19 -5 -48 -15 -65
-23 -130 -63 -165 -80 -191 -97 -16 -11 -43 -27 -59 -36 -98 -55 -308 -225
-426 -344 -96 -97 -226 -258 -274 -340 -55 -94 -136 -261 -171 -351 -20 -52
-40 -105 -45 -119 -14 -36 -38 -122 -61 -225 -55 -237 -60 -589 -13 -770 48
-180 151 -410 218 -485 12 -14 41 -50 64 -81 50 -67 136 -150 212 -205 73 -54
174 -112 208 -120 15 -4 36 -13 47 -20 11 -7 49 -17 85 -24 36 -6 92 -15 125
-21 146 -25 420 24 635 113 111 47 248 114 271 134 8 8 19 14 24 14 19 0 307
204 363 257 124 118 290 263 301 263 15 0 60 -56 66 -83 4 -15 11 -29 15 -32
4 -2 20 -31 35 -62 30 -63 75 -136 88 -141 4 -2 15 -18 23 -34 28 -55 195
-218 279 -272 123 -81 130 -84 192 -106 152 -52 296 -69 438 -50 218 29 329
54 470 107 129 49 175 72 370 186 192 112 469 338 646 526 74 79 102 102 110
94 8 -8 13 -66 15 -158 2 -81 8 -163 13 -183 5 -20 15 -94 21 -165 6 -70 17
-144 24 -165 7 -20 16 -54 20 -75 9 -48 48 -125 81 -161 24 -26 31 -28 83 -24
85 6 151 58 419 322 189 187 235 227 246 217 15 -11 42 -139 51 -238 9 -98 70
-249 114 -283 34 -27 104 -26 162 3 91 45 138 83 273 218 104 104 144 151 163
193 29 64 25 77 -31 121 -40 30 -74 95 -86 165 -41 237 -40 212 -35 1220 3
640 8 984 15 1020 6 30 15 114 20 185 11 147 33 260 63 320 12 22 43 64 69 93
52 57 58 72 34 92 -18 15 -70 3 -175 -40 -131 -54 -1088 -535 -1167 -586 -176
-117 -345 -295 -374 -397 -5 -18 -9 -285 -9 -595 l0 -563 -46 -92 c-25 -51
-52 -99 -60 -108 -8 -8 -14 -23 -14 -31 0 -9 -7 -21 -15 -28 -8 -6 -17 -20
-20 -31 -11 -32 -124 -200 -201 -294 -84 -105 -147 -166 -264 -253 -155 -117
-280 -156 -500 -156 -119 0 -160 4 -230 23 -232 62 -426 214 -601 471 -25 36
-50 76 -57 90 -6 14 -16 32 -20 40 -33 59 -52 102 -52 117 -1 10 -9 36 -20 58
-11 22 -19 50 -20 63 0 12 -9 58 -21 102 -18 70 -20 102 -16 282 2 144 8 223
20 273 9 38 17 86 17 105 0 20 9 61 20 93 11 31 20 67 20 79 0 13 9 43 20 67
11 24 20 53 20 65 0 11 9 35 20 51 11 17 20 36 20 43 0 19 79 178 122 247 21
33 38 65 38 72 0 7 17 24 37 38 103 69 350 -17 488 -171 47 -53 63 -64 88 -64
34 0 113 26 137 46 8 6 25 15 38 19 46 14 208 131 295 214 98 94 121 129 112
170 -11 52 -168 184 -257 217 -88 32 -106 34 -253 35 -130 1 -157 -2 -205 -20
-30 -11 -61 -21 -68 -21 -13 0 -75 -27 -177 -77 -62 -30 -75 -38 -148 -85 -32
-21 -60 -38 -62 -38 -2 0 -24 -14 -47 -30 -24 -17 -54 -38 -68 -48 -14 -9 -27
-20 -30 -23 -3 -4 -33 -28 -68 -53 -93 -69 -259 -238 -340 -348 -40 -53 -72
-100 -72 -104 0 -4 -7 -16 -17 -26 -20 -22 -22 -27 -105 -190 -88 -176 -102
-209 -138 -336 -61 -214 -89 -400 -99 -672 l-6 -155 -40 -60 c-111 -168 -301
-381 -391 -437 -153 -97 -421 -142 -615 -104 -154 31 -298 114 -434 251 -116
116 -166 183 -236 313 -9 18 -21 38 -26 45 -5 7 -22 46 -37 87 -16 41 -34 91
-42 110 -7 19 -16 53 -20 75 -3 22 -13 63 -21 90 -25 79 -29 423 -8 545 9 52
21 120 26 151 18 114 96 350 140 419 5 8 14 26 19 40 6 14 15 34 22 45 6 11
25 45 41 75 16 30 49 74 73 98 41 41 44 42 108 42 136 0 328 -97 406 -207 36
-50 66 -60 123 -44 157 46 473 276 528 385 l21 42 -26 40 c-14 21 -56 66 -92
100 l-67 60 69 95 c38 52 95 132 127 179 75 110 101 146 227 318 58 79 112
153 120 165 39 57 167 225 204 267 23 26 76 90 118 141 75 92 162 179 288 289
35 30 71 62 79 70 51 51 230 180 248 180 5 0 24 8 43 19 110 58 311 54 404
-10 154 -103 222 -288 165 -441 -23 -62 -66 -135 -91 -155 -7 -6 -38 -21 -68
-33 -189 -76 -240 -106 -240 -141 0 -31 44 -42 139 -35 106 8 212 30 325 67
98 33 242 95 267 116 8 7 18 13 22 13 33 0 257 203 257 233 0 8 8 25 18 38 64
84 90 305 53 444 -36 132 -74 200 -170 298 -88 91 -147 127 -256 161 -62 18
-200 27 -280 17z m2243 -2490 c2 -13 -6 -67 -17 -120 -16 -72 -24 -160 -32
-351 -13 -313 -13 -352 -1 -1140 l11 -635 -37 -45 c-80 -99 -158 -165 -184
-155 -25 10 -56 104 -75 225 -18 126 -20 239 -15 1441 l3 626 65 39 c128 77
139 83 163 94 13 6 35 20 49 31 33 26 66 21 70 -10z"/>
  <path d="M7766 3015 c-36 -38 -69 -103 -62 -121 7 -19 85 -19 92 -1 3 8 4 45
2 83 l-3 69 -29 -30z"/>
  </g>
</svg>
